<svg xmlns="http://www.w3.org/2000/svg" xmlns:xlink="http://www.w3.org/1999/xlink" version="1.1" x="0px" y="0px" viewBox="0 0 100 125" enable-background="new 0 0 100 100" xml:space="preserve"><path fill="#000000" d="M50.001,95.063c24.847,0,45.062-20.215,45.062-45.063S74.848,4.938,50.001,4.938  C25.153,4.938,4.938,25.152,4.938,50S25.153,95.063,50.001,95.063z M32.551,45.604h24.285l-6.326-6.328  c-1.718-1.717-1.718-4.5,0-6.217c1.715-1.717,4.499-1.717,6.217,0l13.828,13.83c0.206,0.205,0.391,0.432,0.552,0.676  c0.071,0.102,0.118,0.217,0.178,0.326c0.078,0.141,0.164,0.277,0.226,0.428c0.059,0.143,0.093,0.293,0.136,0.439  c0.038,0.129,0.088,0.248,0.113,0.381c0.059,0.283,0.088,0.572,0.088,0.861s-0.029,0.578-0.088,0.861  c-0.025,0.133-0.075,0.252-0.113,0.381c-0.043,0.146-0.077,0.297-0.136,0.439c-0.062,0.148-0.147,0.287-0.226,0.428  c-0.06,0.109-0.106,0.225-0.178,0.326c-0.161,0.244-0.346,0.471-0.552,0.676l-13.828,13.83c-1.718,1.717-4.502,1.717-6.217,0  c-1.718-1.717-1.718-4.5,0-6.217l6.326-6.328H32.551c-2.43,0-4.396-1.969-4.396-4.396S30.121,45.604,32.551,45.604z"/><text x="0" y="115" fill="#000000" font-size="5px" font-weight="bold" font-family="'Helvetica Neue', Helvetica, Arial-Unicode, Arial, Sans-serif">Created by sunbzy</text><text x="0" y="120" fill="#000000" font-size="5px" font-weight="bold" font-family="'Helvetica Neue', Helvetica, Arial-Unicode, Arial, Sans-serif">from the Noun Project</text></svg>