<svg xmlns="http://www.w3.org/2000/svg" xmlns:xlink="http://www.w3.org/1999/xlink" version="1.1" x="0px" y="0px" viewBox="0 0 100 125" enable-background="new 0 0 100 100" xml:space="preserve"><path fill="#000000" d="M50.001,4.938C25.153,4.938,4.938,25.152,4.938,50s20.215,45.063,45.063,45.063  c24.847,0,45.062-20.215,45.062-45.063S74.848,4.938,50.001,4.938z M67.451,54.396H43.166l6.326,6.328  c1.717,1.717,1.717,4.5,0,6.217c-1.716,1.717-4.5,1.717-6.217,0l-13.829-13.83c-0.206-0.205-0.391-0.432-0.551-0.676  c-0.071-0.102-0.118-0.217-0.179-0.326c-0.077-0.141-0.163-0.279-0.226-0.428c-0.058-0.143-0.092-0.293-0.135-0.439  c-0.039-0.129-0.088-0.248-0.114-0.381c-0.058-0.283-0.088-0.572-0.088-0.861s0.03-0.578,0.088-0.861  c0.026-0.133,0.075-0.252,0.114-0.381c0.043-0.146,0.077-0.297,0.135-0.439c0.063-0.15,0.148-0.287,0.226-0.428  c0.061-0.109,0.107-0.225,0.179-0.326c0.16-0.244,0.345-0.471,0.551-0.676l13.829-13.83c1.717-1.717,4.501-1.717,6.217,0  c1.717,1.717,1.717,4.5,0,6.217l-6.326,6.328h24.285c2.43,0,4.396,1.969,4.396,4.396S69.881,54.396,67.451,54.396z"/><text x="0" y="115" fill="#000000" font-size="5px" font-weight="bold" font-family="'Helvetica Neue', Helvetica, Arial-Unicode, Arial, Sans-serif">Created by sunbzy</text><text x="0" y="120" fill="#000000" font-size="5px" font-weight="bold" font-family="'Helvetica Neue', Helvetica, Arial-Unicode, Arial, Sans-serif">from the Noun Project</text></svg>